<?xml version="1.0" encoding="utf-8"?>
<!-- Generator: Adobe Illustrator 24.0.1, SVG Export Plug-In . SVG Version: 6.00 Build 0)  -->
<svg version="1.1" id="Capa_1" xmlns="http://www.w3.org/2000/svg" xmlns:xlink="http://www.w3.org/1999/xlink" x="0px" y="0px"
	 viewBox="0 0 195.1 195.1" style="enable-background:new 0 0 195.1 195.1;" xml:space="preserve">
<style type="text/css">
	.st0{fill:#FFFFFF;}
</style>
<g>
	<g>
		<polygon class="st0" points="156.7,100.2 116.1,140.8 119.8,144.6 166.8,97.5 119.8,50.5 116.1,54.2 156.7,94.9 23,94.9 23,100.2 
					"/>
		<path class="st0" d="M97.5,0C43.8,0,0,43.8,0,97.5c0,53.8,43.7,97.5,97.5,97.5s97.5-43.8,97.5-97.5C195.1,43.8,151.3,0,97.5,0z
			 M97.5,190.4c-51.2,0-92.9-41.7-92.9-92.9c0-51.2,41.7-92.9,92.9-92.9c51.2,0,92.9,41.7,92.9,92.9
			C190.4,148.8,148.8,190.4,97.5,190.4z"/>
	</g>
</g>
</svg>
