<?xml version="1.0" encoding="iso-8859-1"?>
<!-- Generator: Adobe Illustrator 18.1.1, SVG Export Plug-In . SVG Version: 6.00 Build 0)  -->
<svg version="1.1" id="Capa_1" xmlns="http://www.w3.org/2000/svg" xmlns:xlink="http://www.w3.org/1999/xlink" x="0px" y="0px"
	 viewBox="0 0 48.304 48.304" style="enable-background:new 0 0 48.304 48.304;" xml:space="preserve" fill="#95e1d3">
<g>
	<path d="M34.948,0.212C34.467,0.071,33.977,0,33.491,0c-2.977,0-5.399,2.668-5.399,5.948v12.538
		c0,0.829,0.671,1.5,1.5,1.5H42.13c1.97,0,3.811-0.888,4.925-2.375c0.984-1.313,1.271-2.904,0.811-4.479
		C46.063,6.966,41.113,2.015,34.948,0.212z M44.655,15.811c-0.542,0.724-1.51,1.174-2.524,1.174H31.093V5.948
		c0-1.844,1.456-3.313,3.013-2.857c5.193,1.52,9.363,5.689,10.882,10.883C45.23,14.802,44.941,15.43,44.655,15.811z"/>
	<path d="M24.727,48.304c9.496,0,18.221-5.566,22.227-14.181c1.147-2.465,0.987-5.063-0.45-7.316
		c-1.745-2.736-5.19-4.504-8.776-4.504H26.227V10.801c0-5.409-3.907-9.979-8.531-9.979c-1.108,0-2.215,0.253-3.29,0.753
		C5.792,5.581,0.225,14.307,0.225,23.803C0.225,37.313,11.216,48.304,24.727,48.304z M15.671,4.295
		c0.675-0.314,1.356-0.473,2.024-0.473c2.998,0,5.531,3.196,5.531,6.979v13.001c0,0.829,0.671,1.5,1.5,1.5h13.001
		c2.587,0,5.039,1.224,6.247,3.118c0.613,0.961,1.155,2.511,0.259,4.438c-3.517,7.561-11.174,12.446-19.508,12.446
		c-11.856,0-21.501-9.646-21.501-21.501C3.225,15.469,8.11,7.811,15.671,4.295z"/>
</g>
</svg>
