<?xml version="1.0" encoding="utf-8"?>
<!-- Generator: Adobe Illustrator 24.0.1, SVG Export Plug-In . SVG Version: 6.00 Build 0)  -->
<svg version="1.1" id="Слой_1" xmlns="http://www.w3.org/2000/svg" xmlns:xlink="http://www.w3.org/1999/xlink" x="0px" y="0px"
	 viewBox="0 0 200 200" style="enable-background:new 0 0 200 200;" xml:space="preserve">
<style type="text/css">
	.st0{fill:#49341A;}
	.st1{fill:#724211;}
	.st2{fill:#DDB576;}
</style>
<ellipse class="st0" cx="100.4" cy="100.2" rx="92.1" ry="87.3"/>
<path class="st1" d="M109,89.8c-9,0.3-16.2,1.3-21.2,2.2c-4.7,0.8-5.6,0.8-14.7,2.8c-5,1.1-10.9,2.2-17.3,2.7
	c-5.5,0.5-10.5,0.6-15,0.4c-7.3-0.1-14.6-0.2-21.9-0.3c-1.1-1.9-2.3-4.8-2.3-8.3c0-2.8,0.9-4.4,2.7-9.5c0.8-2.3,1.9-5.6,3.2-9.7
	c2.6-5,5.1-10,7.7-15c2.6-3.7,5.1-7.4,7.7-11.2c3.3-3,7.5-6.4,12.8-9.8c7-4.5,12.9-7.1,15.2-8c4.9-2,11.4-4.3,19.5-5.7
	c3.9-0.5,8.1-0.8,12.7-0.8c9.1-0.1,17.2,0.8,24,2c4.3,1.3,9.1,3.1,14,5.3c2.5,1.1,8.5,4,15.7,8.7c5.2,3.4,8.3,5.5,11.8,9.2
	c2,2.1,3.9,4.5,5.5,6.5c2.4,3,4.2,5.5,5.5,7.3c1.4,2.9,2.6,5.6,3.7,8.1c0.7,1.7,1.9,4.6,2.7,6.7c1.1,3.2,2.3,8.2,2,15.2
	c-0.8,1.7-1.7,3.4-2.5,5.2c-2.3,0.4-5.8,0.9-10,1.7c-10.4,1.9-9.6,2.2-13.2,2.5c-1.8,0.1-9.1,0.6-18.5-1.5c-4.4-1-5-1.6-10-3
	C124.2,92.2,117.6,90.6,109,89.8z"/>
<path class="st1" d="M91.8,111.2c10.1,0.5,17.7-0.9,22.8-2.3c5.1-1.4,6.6-2.4,13-3.9c7.5-1.7,13.5-2.1,17.4-2.3
	c3-0.2,8.3-0.4,15-0.1c5.3,0.2,12.2,0.8,20.2,2.3c1.6,1.5,3.5,3.8,3.8,6.9c0.3,2.8-1,4.6-2.9,9.4c-0.9,2.3-2.1,5.5-3.4,9.6
	c-2.7,4.9-5.3,9.9-8,14.8c-2.6,3.7-5.3,7.3-7.9,11c-3.4,2.9-7.7,6.3-13.1,9.5c-7.1,4.4-13.1,6.8-15.3,7.6c-4.9,1.9-11.5,4-19.6,5.2
	c-3.9,0.4-8.1,0.6-12.7,0.5c-9.1-0.1-17.2-1.2-23.9-2.6c-4.3-1.4-9-3.3-13.9-5.7c-2.5-1.2-8.4-4.2-15.5-9c-5.1-3.5-8.2-5.6-11.6-9.4
	c-1.9-2.1-3.8-4.6-5.3-6.6c-2.3-3-4.1-5.6-5.3-7.5c-1.3-2.9-2.5-5.7-3.5-8.2c-1-2.6-1.7-4.5-2.5-6.8c-3.6-10.1-3.6-11.8-3.4-13.3
	c0.2-1.2,0.7-4.5,3.2-6.5c2.3-1.9,5-1.7,10.5-1.3c5.1,0.3,10.2,0.5,15.3,0.8c10.2,0.8,11.8,0.7,15.7,1.5c3.9,0.8,6,1.5,8.8,2.3
	C74.6,108.8,82,110.4,91.8,111.2z"/>
<path class="st2" d="M181.3,110.7c-0.3,0.9-3.4-0.5-6.8,0.5c-5,1.4-8.2,7.1-8.2,7c0,0,0.1-0.1,0.2-0.2c0.5-0.3,5.5-2.5,9.2,0
	c0.5,0.4,1.1,0.9,1.7,1.7c0.3,0.7,0.5,1.5,0.6,2.4c0.5,4.5-2.3,8-3.2,9.1c-0.6,2.2-2,6-5.6,9.2c-1,0.8-1.9,1.5-2.8,2
	c-1.2-0.1-3.1-0.3-5.1-1.3c-2.3-1.1-3.6-2.6-4.6-3.7c-1.9-2.1-4.5-5-8.3-8.8c1.8,3.8,3.7,7.8,5.5,12c1.5,3.4,2.9,6.7,4.2,10
	c-0.7,1.9-1.8,4-3.5,6.2c-4.7,6.3-11,8.8-14,9.8c-1.7-0.4-3.4-0.8-5.2-1.2c-0.9-0.7-2.2-1.9-3.2-3.7c-3.1-5.5-0.1-10.6-0.9-17.6
	c-0.3-3-1.3-7.1-4.6-11.9c-1.8,4.5-2.5,8.3-2.8,10.8c-0.9,9.2,2,14.1-0.6,21.3c-1.1,3-2.7,5.2-3.8,6.5c-2.1,1-4.1,2-6.2,3
	c-5.6,1.4-10.3,2-13.8,2.3c-13.4,1.1-17.2-1.7-18.6-3c-0.7-0.6-1.1-1.2-1.4-1.5c-0.3-0.5-0.6-1.2-0.8-2.1c-1.1-4.2,1.4-7.9,4-12.6
	c2.8-5.1,4.6-8.3,5.7-11.5c1.1-3.2,2-8.2,0.7-15.2c-3.4,5.3-5.6,10-7,13.3c-2.6,6.3-3.4,10.5-7.3,14.3c-2.5,2.4-5.3,3.6-7.3,4.2
	c-2.4,0.2-5.6,0.1-9.2-0.5c-5.2-1-9.2-2.9-11.8-4.5c-1.5-0.8-4.2-2.6-6.2-6c-1-1.7-1.5-3.2-1.7-4.4c0.7-1.1,1.9-2.7,3.7-4.1
	c3-2.3,5.7-2.7,7.8-3.5c2.8-1.1,6.3-3.5,9.5-9.8c-3.9,0.4-8.4,1.3-13.3,2.8c-2.5,0.8-4.8,1.6-6.9,2.5c-1.4,0.2-3.7,0.4-6-0.7
	c-0.6-0.3-1.8-0.9-4.7-4.5c-1.1-1.4-2.6-3.4-4.2-5.8c-0.6-0.9-2.7-4.2-2.2-8.7c0.3-2.6,1.5-4.5,2.2-5.5c1.3-1.2,3.7-3,7-4.2
	c3-1,6-0.8,11.7-0.3c5.9,0.5,8.8,0.7,9.3,1.8c0.5,1.1,0.1,4.1-11.7,12.8c5.8-3.4,10.8-5.5,14.5-6.8c5.5-2,8.1-2.2,9-2.3
	c5.3-0.5,9.6,0.7,12.3,1.7c2.2,0,5.5,0.2,6.5,2.2c2.6,5-12.3,17.4-11.7,18c0.4,0.4,6.3-5.1,14-10.3c5.3-3.6,10-6.1,13.2-7.7
	c2.1-0.5,4.6-0.7,6.7,0.7c8.6,5.5,0.6,32.2,1.5,32.3c0.4,0.1,2.6-5.3,3.7-13c1.3-9.5,0.1-16.3,4.8-20.7c0.6-0.6,1.2-0.9,1.5-1.2
	c4.6-1.4,9.2-2.9,13.8-4.3c0.9-0.4,2-0.7,3.2-0.3c8,2.4,5.7,32.7,6.2,32.7c0.3,0,2.4-9.2,1.5-22.2c-0.3-4.7-1.1-10.3,1.8-12.3
	c1.2-0.8,2.6-0.8,3.7-0.7c1.2-0.7,3.2-1.6,5-1c3.4,1.1,3.4,6.1,6.7,13.5c3.2,7.1,7.3,11.9,7.7,11.7c0.3-0.2-2.5-4.7-4.8-12.2
	c-1.2-3.8-3.5-11.1-1.3-12.5c0.9-0.6,2.2-0.1,3.3,0.5c3.5,0.4,7,0.9,10.5,1.3c1.1,0,3.2,0.1,5.2,1.5
	C179.4,108.3,181.6,109.8,181.3,110.7z"/>
<path class="st2" d="M22.3,88.6c0.3-0.9,3.4,0.5,6.8-0.5c5-1.4,8.2-7.1,8.2-7c0,0-0.1,0.1-0.2,0.2c-0.5,0.3-5.5,2.5-9.2,0
	c-0.5-0.4-1.1-0.9-1.7-1.7c-0.3-0.7-0.5-1.5-0.6-2.4c-0.5-4.5,2.3-8,3.2-9.1c0.6-2.2,2-6,5.5-9.2c1-0.8,1.9-1.5,2.8-2
	c1.2,0.1,3.1,0.3,5.1,1.3c2.3,1.1,3.6,2.6,4.6,3.7c1.9,2.1,4.5,5,8.3,8.8c-1.9-3.8-3.7-7.8-5.5-12c-1.5-3.4-2.9-6.7-4.2-10
	c0.7-1.9,1.8-4,3.5-6.2c4.7-6.3,11-8.8,14-9.8c1.7,0.4,3.4,0.8,5.2,1.2c0.9,0.7,2.2,1.9,3.2,3.7c3.1,5.5,0.2,10.6,0.9,17.6
	c0.3,3,1.4,7.1,4.7,11.9c1.8-4.5,2.5-8.3,2.7-10.8c0.9-9.2-2-14.1,0.6-21.3c1.1-3,2.7-5.2,3.8-6.5c2.1-1,4.1-2,6.2-3
	c5.6-1.4,10.3-2.1,13.8-2.4c13.4-1.2,17.2,1.7,18.6,2.9c0.7,0.6,1.1,1.2,1.4,1.5c0.3,0.5,0.6,1.2,0.8,2.1c1.1,4.2-1.3,7.9-4,12.6
	c-2.8,5.1-4.6,8.3-5.6,11.5c-1,3.2-2,8.2-0.6,15.2c3.4-5.3,5.6-10,7-13.3c2.6-6.3,3.3-10.5,7.3-14.3c2.5-2.4,5.3-3.6,7.3-4.3
	c2.4-0.2,5.6-0.2,9.2,0.5c5.2,1,9.2,2.9,11.8,4.4c1.5,0.8,4.2,2.6,6.2,6c1,1.6,1.5,3.2,1.7,4.4c-0.7,1.1-1.9,2.7-3.7,4.1
	c-3,2.3-5.7,2.7-7.8,3.5c-2.8,1.1-6.3,3.5-9.5,9.8c3.9-0.5,8.4-1.3,13.3-2.8c2.5-0.8,4.8-1.6,6.9-2.5c1.4-0.2,3.7-0.5,6,0.7
	c0.6,0.3,1.8,0.9,4.7,4.5c1.1,1.4,2.6,3.3,4.2,5.8c0.6,0.9,2.7,4.2,2.2,8.7c-0.3,2.6-1.5,4.5-2.2,5.5c-1.3,1.2-3.7,3-7,4.2
	c-3,1-6,0.8-11.7,0.4c-5.9-0.5-8.8-0.7-9.3-1.8c-0.5-1.1-0.1-4.1,11.6-12.9c-5.8,3.4-10.8,5.5-14.5,6.9c-5.4,2-8.1,2.3-9,2.3
	c-5.3,0.5-9.6-0.7-12.3-1.6c-2.2,0-5.5-0.2-6.5-2.2c-2.6-5,12.2-17.4,11.6-18c-0.4-0.4-6.3,5.1-14,10.4c-5.3,3.6-10,6.1-13.2,7.7
	c-2.1,0.5-4.6,0.7-6.7-0.6c-8.6-5.5-0.7-32.2-1.6-32.3c-0.4-0.1-2.6,5.3-3.6,13c-1.3,9.5,0,16.3-4.8,20.7c-0.6,0.6-1.2,0.9-1.5,1.2
	c-4.6,1.5-9.2,2.9-13.8,4.4c-0.9,0.4-2,0.7-3.2,0.3C61.7,89,64,58.7,63.6,58.7c-0.3,0-2.4,9.2-1.5,22.2c0.4,4.7,1.1,10.3-1.8,12.3
	c-1.2,0.8-2.6,0.8-3.7,0.7c-1.2,0.7-3.2,1.6-5,1c-3.4-1.1-3.4-6.1-6.7-13.5c-3.2-7.1-7.4-11.8-7.7-11.7c-0.3,0.2,2.5,4.7,4.9,12.2
	c1.2,3.8,3.5,11.1,1.4,12.5c-0.9,0.6-2.2,0.1-3.3-0.5c-3.5-0.4-7-0.9-10.5-1.3c-1.1,0-3.2-0.1-5.2-1.5C24.2,90.9,22,89.4,22.3,88.6z
	"/>
</svg>
